<?xml version="1.0" encoding="UTF-8"?>
<svg width="262px" height="85px" viewBox="0 0 262 85" version="1.1" xmlns="http://www.w3.org/2000/svg" xmlns:xlink="http://www.w3.org/1999/xlink">
    <!-- Generator: sketchtool 53 (72520) - https://sketchapp.com -->
    <title>214CE5DE-8378-4966-BAA0-89EE4BE5D032</title>
    <desc>Created with sketchtool.</desc>
    <g id="Desktop" stroke="none" stroke-width="1" fill="none" fill-rule="evenodd">
        <g id="HomepageConcore" transform="translate(-230.000000, -2253.000000)">
            <g id="card-innovation-squad" transform="translate(170.000000, 2143.000000)">
                <g id="logo-innovationsquad">
                    <g transform="translate(60.000000, 110.000000)">
                        <path d="M4.55621302,1 L11,1 L6.44378698,24 L0,24 L4.55621302,1 Z M38,1 L33.3043478,24 L27.8372671,24 L20.089441,11.3828571 L17.5068323,24 L11,24 L15.6956522,1 L21.1627329,1 L28.9440994,13.5842857 L31.4931677,1 L38,1 Z M65,1 L60.3043478,24 L54.8372671,24 L47.089441,11.3828571 L44.5068323,24 L38,24 L42.6956522,1 L48.1627329,1 L55.9440994,13.5842857 L58.4931677,1 L65,1 Z M78.5261146,24 C76.1855509,24 74.1486286,23.5714329 72.4152866,22.7142857 C70.6819446,21.8571386 69.3460769,20.6593484 68.4076433,19.1208791 C67.4692097,17.5824099 67,15.8241857 67,13.8461538 C67,11.208778 67.6127327,8.83517538 68.8382166,6.72527473 C70.0637004,4.61537407 71.7749359,2.9670389 73.9719745,1.78021978 C76.1690131,0.593400659 78.669625,-4.16333634e-17 81.4738854,-4.16333634e-17 C83.8144491,-4.16333634e-17 85.8513714,0.428567143 87.5847134,1.28571429 C89.3180554,2.14286143 90.6539231,3.34065165 91.5923567,4.87912088 C92.5307903,6.41759011 93,8.17581429 93,10.1538462 C93,12.791222 92.3872673,15.1648246 91.1617834,17.2747253 C89.9362996,19.3846259 88.2250641,21.0329611 86.0280255,22.2197802 C83.8309869,23.4065993 81.330375,24 78.5261146,24 Z M78.5714286,19 C80.0571503,19 81.3627649,18.6425036 82.4883117,17.9275 C83.6138584,17.2124964 84.4805164,16.253756 85.0883117,15.05125 C85.6961069,13.848744 86,12.5216739 86,11.07 C86,9.53165897 85.5103945,8.30208794 84.5311688,7.38125 C83.5519432,6.46041206 82.1844244,6 80.4285714,6 C78.9428497,6 77.6372351,6.35749642 76.5116883,7.0725 C75.3861416,7.78750357 74.5194836,8.74624399 73.9116883,9.94875 C73.3038931,11.151256 73,12.4783261 73,13.93 C73,15.468341 73.4896055,16.6979121 74.4688312,17.61875 C75.4480568,18.5395879 76.8155756,19 78.5714286,19 Z M122,1 L107.052963,24 L100.413619,24 L95,1 L101.911728,1 L105.31652,15.95 L115.054224,1 L122,1 Z M134.527675,19.5314286 L124.630996,19.5314286 L121.940959,24 L115,24 L129.911439,1 L136.387454,1 L142,24 L135.457565,24 L134.527675,19.5314286 Z M133,14 L131.441989,7 L127,14 L133,14 Z M151.177542,6.15857143 L144,6.15857143 L145.068285,1 L166,1 L164.931715,6.15857143 L157.787557,6.15857143 L154.14871,24 L147.538695,24 L151.177542,6.15857143 Z M168.556213,1 L175,1 L170.443787,24 L164,24 L168.556213,1 Z M188.526115,24 C186.185551,24 184.148629,23.5714329 182.415287,22.7142857 C180.681945,21.8571386 179.346077,20.6593484 178.407643,19.1208791 C177.46921,17.5824099 177,15.8241857 177,13.8461538 C177,11.208778 177.612733,8.83517538 178.838217,6.72527473 C180.0637,4.61537407 181.774936,2.9670389 183.971975,1.78021978 C186.169013,0.593400659 188.669625,-4.16333634e-17 191.473885,-4.16333634e-17 C193.814449,-4.16333634e-17 195.851371,0.428567143 197.584713,1.28571429 C199.318055,2.14286143 200.653923,3.34065165 201.592357,4.87912088 C202.53079,6.41759011 203,8.17581429 203,10.1538462 C203,12.791222 202.387267,15.1648246 201.161783,17.2747253 C199.9363,19.3846259 198.225064,21.0329611 196.028025,22.2197802 C193.830987,23.4065993 191.330375,24 188.526115,24 Z M188.571429,19 C190.05715,19 191.362765,18.6425036 192.488312,17.9275 C193.613858,17.2124964 194.480516,16.253756 195.088312,15.05125 C195.696107,13.848744 196,12.5216739 196,11.07 C196,9.53165897 195.510395,8.30208794 194.531169,7.38125 C193.551943,6.46041206 192.184424,6 190.428571,6 C188.94285,6 187.637235,6.35749642 186.511688,7.0725 C185.386142,7.78750357 184.519484,8.74624399 183.911688,9.94875 C183.303893,11.151256 183,12.4783261 183,13.93 C183,15.468341 183.489605,16.6979121 184.468831,17.61875 C185.448057,18.5395879 186.815576,19 188.571429,19 Z M231,1 L226.304348,24 L220.837267,24 L213.089441,11.3828571 L210.506832,24 L204,24 L208.695652,1 L214.162733,1 L221.944099,13.5842857 L224.493168,1 L231,1 Z" id="INNOVATION" fill="#FFFFFF" fill-rule="nonzero"></path>
                        <g id="Group-4-Copy-2" transform="translate(0.000000, 41.000000)">
                            <polygon id="Fill-1" fill="#41C9DE" points="16.6458333 0 8.5 4.60424298 8.5 13.8127289 16.6458333 18.4166667 24.7916667 13.8127289 24.7916667 4.60424298"></polygon>
                            <polygon id="Fill-2" fill="#FF4B23" points="0 20.1875 0 29.3958333 8.1456771 34 16.2916667 29.3958333 16.2916667 20.1875 8.1456771 15.5833333"></polygon>
                            <polygon id="Fill-3" fill="#FFD923" points="17.7083333 20.1875 17.7083333 29.3958333 25.8540104 34 34 29.3958333 34 20.1875 25.8540104 15.5833333"></polygon>
                        </g>
                        <path d="M60.048,74.768 C56.7999838,74.768 53.7200146,74.3760039 50.808,73.592 C47.8959854,72.8079961 45.5253425,71.8000062 43.696,70.568 L48.064,62.28 C50.0426766,63.5493397 52.1519888,64.5106634 54.392,65.164 C56.6320112,65.8173366 58.8719888,66.144 61.112,66.144 C63.2400106,66.144 64.8919941,65.8360031 66.068,65.22 C67.2440059,64.6039969 67.832,63.7546721 67.832,62.672 C67.832,61.738662 67.3000053,61.0106693 66.236,60.488 C65.1719947,59.9653307 63.5200112,59.4053363 61.28,58.808 C58.7413206,58.1359966 56.6320084,57.4546701 54.952,56.764 C53.2719916,56.0733299 51.8253394,55.0186738 50.612,53.6 C49.3986606,52.1813262 48.792,50.3146782 48.792,48 C48.792,45.199986 49.5573257,42.7453439 51.088,40.636 C52.6186743,38.5266561 54.8026525,36.8933391 57.64,35.736 C60.4773475,34.5786609 63.799981,34 67.608,34 C70.408014,34 73.0213212,34.2893304 75.448,34.868 C77.8746788,35.4466696 79.9653246,36.2773279 81.72,37.36 L77.688,45.592 C76.1573257,44.6213285 74.4680092,43.8840025 72.62,43.38 C70.7719908,42.8759975 68.877343,42.624 66.936,42.624 C64.7333223,42.624 63.0066729,42.9786631 61.756,43.688 C60.5053271,44.3973369 59.88,45.3119944 59.88,46.432 C59.88,47.4026715 60.4213279,48.1493307 61.504,48.672 C62.5866721,49.1946693 64.2666553,49.7546637 66.544,50.352 C69.0826794,50.9866698 71.1826584,51.6399966 72.844,52.312 C74.5053416,52.9840034 75.9333274,54.0106598 77.128,55.392 C78.3226726,56.7733402 78.92,58.5839888 78.92,60.824 C78.92,63.5866805 78.1453411,66.0226561 76.596,68.132 C75.0466589,70.2413439 72.8440143,71.8746609 69.988,73.032 C67.1319857,74.1893391 63.8186855,74.768 60.048,74.768 Z M114.48,75.552 C115.562672,75.552 116.645328,75.318669 117.728,74.852 C118.810672,74.385331 119.781329,73.7413374 120.64,72.92 L124.728,79.472 C123.383993,80.7786732 121.750676,81.7679966 119.828,82.44 C117.905324,83.1120034 115.805345,83.448 113.528,83.448 C106.359964,83.448 101.002684,80.3866973 97.456,74.264 C93.0506446,73.330662 89.5973458,71.3706816 87.096,68.384 C84.5946542,65.3973184 83.344,61.7760213 83.344,57.52 C83.344,53.0399776 84.3799896,49.0080179 86.452,45.424 C88.5240104,41.8399821 91.4173148,39.0400101 95.132,37.024 C98.8466852,35.0079899 103.074643,34 107.816,34 C111.773353,34 115.217319,34.7279927 118.148,36.184 C121.078681,37.6400073 123.337325,39.6746536 124.924,42.288 C126.510675,44.9013464 127.304,47.8879832 127.304,51.248 C127.304,54.906685 126.604007,58.2759846 125.204,61.356 C123.803993,64.4360154 121.834679,67.0399894 119.296,69.168 C116.757321,71.2960106 113.770684,72.826662 110.336,73.76 C110.896003,74.3946698 111.502663,74.8519986 112.156,75.132 C112.809337,75.4120014 113.583996,75.552 114.48,75.552 Z M106.864,43.184 C104.399988,43.184 102.234676,43.7999938 100.368,45.032 C98.501324,46.2640062 97.064005,47.9159896 96.056,49.988 C95.047995,52.0600104 94.544,54.3466542 94.544,56.848 C94.544,59.4986799 95.3559919,61.6173254 96.98,63.204 C98.6040081,64.7906746 100.871985,65.584 103.784,65.584 C106.248012,65.584 108.413324,64.9680062 110.28,63.736 C112.146676,62.5039938 113.583995,60.8520104 114.592,58.78 C115.600005,56.7079896 116.104,54.4213458 116.104,51.92 C116.104,49.2693201 115.292008,47.1506746 113.668,45.564 C112.043992,43.9773254 109.776015,43.184 106.864,43.184 Z M148.136,74.768 C144.73865,74.768 141.808012,74.1986724 139.344,73.06 C136.879988,71.9213276 134.994673,70.2880106 133.688,68.16 C132.381327,66.0319894 131.728,63.530681 131.728,60.656 C131.728,59.4613274 131.877332,58.0800078 132.176,56.512 L136.544,34.784 L147.632,34.784 L143.32,56.344 C143.095999,57.4640056 142.984,58.490662 142.984,59.424 C142.984,63.5306872 145.149312,65.584 149.48,65.584 C151.832012,65.584 153.689327,64.8653405 155.052,63.428 C156.414673,61.9906595 157.431997,59.6293498 158.104,56.344 L162.416,34.784 L173.336,34.784 L168.912,57.016 C166.522655,68.8507258 159.597391,74.768 148.136,74.768 Z M200.44,66.368 L183.752,66.368 L179.216,73.984 L167.512,73.984 L192.656,34.784 L203.576,34.784 L213.04,73.984 L202.008,73.984 L200.44,66.368 Z M198.76,58.192 L196.128,45.48 L188.624,58.192 L198.76,58.192 Z M224.072,34.784 L241.096,34.784 C245.12802,34.784 248.618652,35.44666 251.568,36.772 C254.517348,38.09734 256.785325,40.0013209 258.372,42.484 C259.958675,44.9666791 260.752,47.8879832 260.752,51.248 C260.752,55.8026894 259.71601,59.7973162 257.644,63.232 C255.57199,66.6666838 252.688018,69.317324 248.992,71.184 C245.295982,73.050676 241.058691,73.984 236.28,73.984 L216.232,73.984 L224.072,34.784 Z M236.616,65.136 C239.304013,65.136 241.62799,64.5666724 243.588,63.428 C245.54801,62.2893276 247.031995,60.7213433 248.04,58.724 C249.048005,56.7266567 249.552,54.4586794 249.552,51.92 C249.552,49.2693201 248.730675,47.2253405 247.088,45.788 C245.445325,44.3506595 243.037349,43.632 239.864,43.632 L233.368,43.632 L229.112,65.136 L236.616,65.136 Z" id="SQUAD" stroke="#FFFFFF" stroke-width="1.5" fill-rule="nonzero"></path>
                    </g>
                </g>
            </g>
        </g>
    </g>
</svg>