<?xml version="1.0" encoding="UTF-8"?>
<svg width="280px" height="120px" viewBox="0 0 280 120" version="1.1" xmlns="http://www.w3.org/2000/svg" xmlns:xlink="http://www.w3.org/1999/xlink">
    <!-- Generator: sketchtool 53 (72520) - https://sketchapp.com -->
    <title>B141F0E7-07FB-4448-A68C-2AE5FD884726</title>
    <desc>Created with sketchtool.</desc>
    <defs>
        <filter x="-3.3%" y="-10.1%" width="106.6%" height="120.1%" filterUnits="objectBoundingBox" id="filter-1">
            <feOffset dx="0" dy="2" in="SourceAlpha" result="shadowOffsetOuter1"></feOffset>
            <feGaussianBlur stdDeviation="7" in="shadowOffsetOuter1" result="shadowBlurOuter1"></feGaussianBlur>
            <feColorMatrix values="0 0 0 0 0   0 0 0 0 0   0 0 0 0 0  0 0 0 0.4 0" type="matrix" in="shadowBlurOuter1" result="shadowMatrixOuter1"></feColorMatrix>
            <feMerge>
                <feMergeNode in="shadowMatrixOuter1"></feMergeNode>
                <feMergeNode in="SourceGraphic"></feMergeNode>
            </feMerge>
        </filter>
    </defs>
    <g id="Desktop" stroke="none" stroke-width="1" fill="none" fill-rule="evenodd">
        <g id="HomepageConcore" transform="translate(-221.000000, -1881.000000)">
            <g id="card-sprint-zero" transform="translate(170.000000, 1795.000000)">
                <g filter="url(#filter-1)" id="logo-sprint-zero">
                    <g transform="translate(64.000000, 98.000000)">
                        <g id="Group-4-Copy-2" transform="translate(44.000000, 54.000000)">
                            <polygon id="Fill-1" fill="#41C9DE" points="16.6458333 0 8.5 4.60424298 8.5 13.8127289 16.6458333 18.4166667 24.7916667 13.8127289 24.7916667 4.60424298"></polygon>
                            <polygon id="Fill-2" fill="#FF4B23" points="0 20.1875 0 29.3958333 8.1456771 34 16.2916667 29.3958333 16.2916667 20.1875 8.1456771 15.5833333"></polygon>
                            <polygon id="Fill-3" fill="#FFD923" points="17.7083333 20.1875 17.7083333 29.3958333 25.8540104 34 34 29.3958333 34 20.1875 25.8540104 15.5833333"></polygon>
                        </g>
                        <path d="M16.352,40.768 C13.1039838,40.768 10.0240146,40.3760039 7.112,39.592 C4.19998544,38.8079961 1.82934248,37.8000062 4.26325641e-14,36.568 L4.368,28.28 C6.34667656,29.5493397 8.4559888,30.5106634 10.696,31.164 C12.9360112,31.8173366 15.1759888,32.144 17.416,32.144 C19.5440106,32.144 21.1959941,31.8360031 22.372,31.22 C23.5480059,30.6039969 24.136,29.7546721 24.136,28.672 C24.136,27.738662 23.6040053,27.0106693 22.54,26.488 C21.4759947,25.9653307 19.8240112,25.4053363 17.584,24.808 C15.0453206,24.1359966 12.9360084,23.4546701 11.256,22.764 C9.5759916,22.0733299 8.1293394,21.0186738 6.916,19.6 C5.7026606,18.1813262 5.096,16.3146782 5.096,14 C5.096,11.199986 5.86132568,8.74534388 7.392,6.636 C8.92267432,4.52665612 11.1066525,2.89333912 13.944,1.736 C16.7813475,0.57866088 20.103981,0 23.912,0 C26.712014,0 29.3253212,0.28933044 31.752,0.868 C34.1786788,1.44666956 36.2693246,2.27732792 38.024,3.36 L33.992,11.592 C32.4613257,10.6213285 30.7720092,9.88400252 28.924,9.38 C27.0759908,8.87599748 25.181343,8.624 23.24,8.624 C21.0373223,8.624 19.3106729,8.97866312 18.06,9.688 C16.8093271,10.3973369 16.184,11.3119944 16.184,12.432 C16.184,13.4026715 16.7253279,14.1493307 17.808,14.672 C18.8906721,15.1946693 20.5706553,15.7546637 22.848,16.352 C25.3866794,16.9866698 27.4866584,17.6399966 29.148,18.312 C30.8093416,18.9840034 32.2373274,20.0106598 33.432,21.392 C34.6266726,22.7733402 35.224,24.5839888 35.224,26.824 C35.224,29.5866805 34.4493411,32.0226561 32.9,34.132 C31.3506589,36.2413439 29.1480143,37.8746609 26.292,39.032 C23.4359857,40.1893391 20.1226855,40.768 16.352,40.768 Z M62.384,0.784 C67.4613587,0.784 71.3813195,1.88532232 74.144,4.088 C76.9066805,6.29067768 78.288,9.38931336 78.288,13.384 C78.288,16.6693498 77.4946746,19.5439877 75.908,22.008 C74.3213254,24.4720123 72.0626813,26.3759933 69.132,27.72 C66.2013187,29.0640067 62.7946861,29.736 58.912,29.736 L51.072,29.736 L49.056,39.984 L37.968,39.984 L45.808,0.784 L62.384,0.784 Z M59.416,21 C61.8800123,21 63.77466,20.4213391 65.1,19.264 C66.42534,18.1066609 67.088,16.4640106 67.088,14.336 C67.088,12.7306586 66.5560053,11.5266707 65.492,10.724 C64.4279947,9.92132932 62.9066766,9.52 60.928,9.52 L55.104,9.52 L52.808,21 L59.416,21 Z M119.056,13.272 C119.056,16.8560179 118.10401,19.9453204 116.2,22.54 C114.29599,25.1346796 111.626684,27.0293274 108.192,28.224 L114.856,39.984 L103.264,39.984 L97.44,29.568 L91.84,29.568 L89.768,39.984 L78.68,39.984 L86.52,0.784 L103.264,0.784 C108.266692,0.784 112.14932,1.88532232 114.912,4.088 C117.67468,6.29067768 119.056,9.3519804 119.056,13.272 Z M107.856,14.336 C107.856,12.7306586 107.314672,11.5266707 106.232,10.724 C105.149328,9.92132932 103.637343,9.52 101.696,9.52 L95.872,9.52 L93.52,21 L100.128,21 C102.592012,21 104.495993,20.4213391 105.84,19.264 C107.184007,18.1066609 107.856,16.4640106 107.856,14.336 Z M127.96,0.784 L139.048,0.784 L131.208,39.984 L120.12,39.984 L127.96,0.784 Z M184.184,0.784 L176.344,39.984 L167.216,39.984 L154.28,18.48 L149.968,39.984 L139.104,39.984 L146.944,0.784 L156.072,0.784 L169.064,22.232 L173.32,0.784 L184.184,0.784 Z M198.632,9.576 L186.592,9.576 L188.384,0.784 L223.496,0.784 L221.704,9.576 L209.72,9.576 L203.616,39.984 L192.528,39.984 L198.632,9.576 Z" id="SPRINT" fill="#FFFFFF" fill-rule="nonzero"></path>
                        <path d="M128.488,58.712 L104.352,82.176 L124.624,82.176 L122.832,90.968 L87.72,90.968 L89.12,84.024 L113.256,60.56 L94.384,60.56 L96.12,51.768 L129.888,51.768 L128.488,58.712 Z M144.784,60.336 L143.496,66.944 L160.912,66.944 L159.288,75.232 L141.816,75.232 L140.416,82.4 L160.968,82.4 L159.176,90.968 L127.76,90.968 L135.6,51.768 L166.288,51.768 L164.552,60.336 L144.784,60.336 Z M205.768,64.256 C205.768,67.8400179 204.81601,70.9293204 202.912,73.524 C201.00799,76.1186796 198.338684,78.0133274 194.904,79.208 L201.568,90.968 L189.976,90.968 L184.152,80.552 L178.552,80.552 L176.48,90.968 L165.392,90.968 L173.232,51.768 L189.976,51.768 C194.978692,51.768 198.86132,52.8693223 201.624,55.072 C204.38668,57.2746777 205.768,60.3359804 205.768,64.256 Z M194.568,65.32 C194.568,63.7146586 194.026672,62.5106707 192.944,61.708 C191.861328,60.9053293 190.349343,60.504 188.408,60.504 L182.584,60.504 L180.232,71.984 L186.84,71.984 C189.304012,71.984 191.207993,71.4053391 192.552,70.248 C193.896007,69.0906609 194.568,67.4480106 194.568,65.32 Z M228,91.752 C224.042647,91.752 220.598681,91.0240073 217.668,89.568 C214.737319,88.1119927 212.478675,86.0773464 210.892,83.464 C209.305325,80.8506536 208.512,77.8640168 208.512,74.504 C208.512,70.0239776 209.54799,65.9920179 211.62,62.408 C213.69201,58.8239821 216.585315,56.0240101 220.3,54.008 C224.014685,51.9919899 228.242643,50.984 232.984,50.984 C236.941353,50.984 240.385319,51.7119927 243.316,53.168 C246.246681,54.6240073 248.505325,56.6586536 250.092,59.272 C251.678675,61.8853464 252.472,64.8719832 252.472,68.232 C252.472,72.7120224 251.43601,76.7439821 249.364,80.328 C247.29199,83.9120179 244.398685,86.7119899 240.684,88.728 C236.969315,90.7440101 232.741357,91.752 228,91.752 Z M228.952,82.568 C231.416012,82.568 233.581324,81.9520062 235.448,80.72 C237.314676,79.4879938 238.751995,77.8360104 239.76,75.764 C240.768005,73.6919896 241.272,71.4053458 241.272,68.904 C241.272,66.2533201 240.460008,64.1346746 238.836,62.548 C237.211992,60.9613254 234.944015,60.168 232.032,60.168 C229.567988,60.168 227.402676,60.7839938 225.536,62.016 C223.669324,63.2480062 222.232005,64.8999896 221.224,66.972 C220.215995,69.0440104 219.712,71.3306542 219.712,73.832 C219.712,76.4826799 220.523992,78.6013254 222.148,80.188 C223.772008,81.7746746 226.039985,82.568 228.952,82.568 Z" id="ZERO" stroke="#FFFFFF" stroke-width="1.5" fill-rule="nonzero"></path>
                    </g>
                </g>
            </g>
        </g>
    </g>
</svg>