<?xml version="1.0" encoding="UTF-8"?>
<svg width="119px" height="109px" viewBox="0 0 119 109" version="1.1" xmlns="http://www.w3.org/2000/svg" xmlns:xlink="http://www.w3.org/1999/xlink">
    <!-- Generator: sketchtool 53 (72520) - https://sketchapp.com -->
    <title>E1A31475-24C8-4FC4-9FDA-737D65A595C1</title>
    <desc>Created with sketchtool.</desc>
    <defs>
        <polygon id="path-1" points="0.200785455 0.694917192 45.1442727 0.694917192 45.1442727 12.7504687 0.200785455 12.7504687"></polygon>
    </defs>
    <g id="Desktop" stroke="none" stroke-width="1" fill="none" fill-rule="evenodd">
        <g id="HomepageConcore" transform="translate(-220.000000, -3187.000000)">
            <g id="Footer" transform="translate(0.000000, 3084.000000)">
                <g id="Group-6">
                    <g transform="translate(205.000000, 103.000000)">
                        <g id="Group-12" transform="translate(15.000000, 0.000000)">
                            <polygon id="Fill-1" fill="#41C9DE" points="59.4996418 0 42 10.9061019 42 32.7167627 59.4996418 43.622093 77 32.7167627 77 10.9061019"></polygon>
                            <polygon id="Fill-2" fill="#FF4B23" points="39.5003582 36.1744186 57 47.079749 57 68.8904097 39.5003582 79.7965116 22 68.8904097 22 47.079749"></polygon>
                            <polygon id="Fill-3" fill="#FFD923" points="79.5 36.1744186 97 47.079749 97 68.8904097 79.5 79.7965116 62 68.8904097 62 47.079749"></polygon>
                            <g id="Group-11" transform="translate(0.000000, 95.755814)">
                                <path d="M5.71921212,12.7674419 C6.5154303,12.7674419 7.27198182,12.6052202 7.98814545,12.280026 C8.7050303,11.9540807 9.33248485,11.4891956 9.8712303,10.8831176 C9.93541818,10.8155253 9.96787273,10.7374186 9.96787273,10.6480465 C9.96787273,10.5015964 9.90873333,10.3784282 9.79045455,10.2777907 C9.64981818,10.143357 9.48321818,9.98939672 9.28921212,9.81440766 C9.09592727,9.64167168 8.94447273,9.50949111 8.83701212,9.41936799 C8.77210303,9.35252668 8.68555758,9.31873051 8.57881818,9.31873051 C8.449,9.31873051 8.33072121,9.36379207 8.22326061,9.45316416 C7.8778,9.81215458 7.49050909,10.0870301 7.05922424,10.2777907 C6.62938182,10.4678003 6.1822303,10.5631806 5.71921212,10.5631806 C5.07300606,10.5631806 4.47223636,10.3896936 3.91762424,10.0419685 C3.36229091,9.6942435 2.92379394,9.22935841 2.60141212,8.64581122 C2.27830909,8.06226402 2.11603636,7.42389193 2.11603636,6.72769083 C2.11603636,6.03224077 2.27830909,5.39386867 2.60141212,4.81032148 C2.92379394,4.22752531 3.36229091,3.76188919 3.91762424,3.41416416 C4.47223636,3.06643912 5.07300606,2.89295212 5.71921212,2.89295212 C6.21468485,2.89295212 6.68852121,2.99584268 7.14072121,3.20387688 C7.59292121,3.41116005 7.9910303,3.71081943 8.3357697,4.10360602 C8.40067879,4.17119836 8.46991515,4.20499453 8.54636364,4.20499453 C8.63218788,4.20499453 8.70791515,4.17119836 8.77210303,4.10360602 C8.85864848,4.02474829 9.0144303,3.88205335 9.24089091,3.67477018 C9.4666303,3.46673598 9.69309091,3.26846512 9.9188303,3.07770451 C9.99455758,2.99884679 10.0320606,2.92599726 10.0320606,2.85915595 C10.0320606,2.78029822 10.0003273,2.70669767 9.93541818,2.64060739 C9.39667273,2.01199863 8.76128485,1.52983995 8.02925455,1.1933803 C7.29722424,0.856920657 6.52624848,0.688690834 5.71921212,0.688690834 C4.68499394,0.688690834 3.72866667,0.960562244 2.85095152,1.50430506 C1.97395758,2.04879891 1.27870909,2.78330233 0.767369697,3.70781532 C0.256030303,4.63383037 0,5.6402052 0,6.72769083 C0,7.82719289 0.256030303,8.83957592 0.767369697,9.76483995 C1.27870909,10.6893529 1.97395758,11.4216033 2.85095152,11.9600889 C3.72866667,12.4985746 4.68499394,12.7674419 5.71921212,12.7674419" id="Fill-4" fill="#FFFFFF"></path>
                                <path d="M61.4053703,12.7674419 C62.2015885,12.7674419 62.95814,12.6052202 63.6750248,12.280026 C64.3911885,11.9540807 65.018643,11.4891956 65.5573885,10.8831176 C65.6222976,10.8155253 65.6540309,10.7374186 65.6540309,10.6480465 C65.6540309,10.5015964 65.5948915,10.3784282 65.4766127,10.2777907 C65.3359764,10.143357 65.1693764,9.98939672 64.9753703,9.81440766 C64.7820855,9.64167168 64.6313521,9.50949111 64.5231703,9.41936799 C64.4582612,9.35252668 64.372437,9.31873051 64.2649764,9.31873051 C64.1351582,9.31873051 64.0168794,9.36379207 63.9094188,9.45316416 C63.5646794,9.81215458 63.1766673,10.0870301 62.7461036,10.2777907 C62.31554,10.4678003 61.8683885,10.5631806 61.4053703,10.5631806 C60.7591642,10.5631806 60.1583945,10.3896936 59.6037824,10.0419685 C59.0491703,9.6942435 58.6106733,9.22935841 58.2875703,8.64581122 C57.9644673,8.06226402 57.8029158,7.42389193 57.8029158,6.72769083 C57.8029158,6.03224077 57.9644673,5.39386867 58.2875703,4.81032148 C58.6106733,4.22752531 59.0491703,3.76188919 59.6037824,3.41416416 C60.1583945,3.06643912 60.7591642,2.89295212 61.4053703,2.89295212 C61.900843,2.89295212 62.3746794,2.99584268 62.8268794,3.20387688 C63.2798006,3.41116005 63.6771885,3.71081943 64.0226491,4.10360602 C64.0875582,4.17119836 64.1567945,4.20499453 64.2325218,4.20499453 C64.3183461,4.20499453 64.3940733,4.17119836 64.4582612,4.10360602 C64.5448067,4.02474829 64.7005885,3.88205335 64.9270491,3.67477018 C65.1527885,3.46673598 65.3799703,3.26846512 65.6057097,3.07770451 C65.6807158,2.99884679 65.7182188,2.92599726 65.7182188,2.85915595 C65.7182188,2.78029822 65.6864855,2.70669767 65.6222976,2.64060739 C65.0835521,2.01199863 64.4481642,1.52983995 63.7154127,1.1933803 C62.9833824,0.856920657 62.2131279,0.688690834 61.4053703,0.688690834 C60.3711521,0.688690834 59.4155461,0.960562244 58.5371097,1.50430506 C57.6601158,2.04879891 56.9655885,2.78330233 56.4542491,3.70781532 C55.9421885,4.63383037 55.6861582,5.6402052 55.6861582,6.72769083 C55.6861582,7.82719289 55.9421885,8.83957592 56.4542491,9.76483995 C56.9655885,10.6893529 57.6601158,11.4216033 58.5371097,11.9600889 C59.4155461,12.4985746 60.3711521,12.7674419 61.4053703,12.7674419 L61.4053703,12.7674419 Z M45.0562127,12.5826895 L45.0728006,12.5826895 L45.0886673,12.5826895 L46.5750855,12.5826895 C46.6616309,12.5826895 46.7337521,12.5549015 46.7928915,12.4985746 C46.8520309,12.4422476 46.8816006,12.3693981 46.8816006,12.280026 L46.8816006,1.1761067 C46.8816006,1.08673461 46.8520309,1.01163201 46.7928915,0.949296854 C46.7337521,0.887712722 46.6616309,0.856920657 46.5750855,0.856920657 L44.8629279,0.856920657 C44.7872006,0.856920657 44.7194067,0.887712722 44.6602673,0.949296854 C44.6011279,1.01163201 44.5715582,1.08673461 44.5715582,1.1761067 L44.5881461,7.73782079 C44.5881461,7.9285814 44.5614612,8.0239617 44.5066491,8.0239617 C44.4424612,8.0239617 44.3616855,7.9285814 44.2643218,7.73782079 L40.3553521,0.95755814 C40.3012612,0.890716826 40.2363521,0.856920657 40.1613461,0.856920657 L38.5782855,0.856920657 C38.49174,0.856920657 38.4196188,0.887712722 38.3604794,0.949296854 C38.30134,1.01163201 38.2717703,1.08673461 38.2717703,1.1761067 L38.2717703,7.60263611 C38.2717703,7.69275923 38.30134,7.76560876 38.3604794,7.82118468 C38.4196188,7.87751163 38.49174,7.90529959 38.5782855,7.90529959 L40.1447582,7.90529959 C40.2320248,7.90529959 40.3012612,7.87450752 40.3553521,7.81292339 C40.409443,7.75133926 40.4361279,7.68149384 40.4361279,7.60263611 L40.4036733,5.61767442 C40.4036733,5.59514364 40.4065582,5.56134747 40.4123279,5.51703694 C40.4166552,5.47197538 40.4303582,5.4494446 40.4519945,5.4494446 C40.4743521,5.4494446 40.5169036,5.48924897 40.5818127,5.56735568 C41.0664673,6.37470862 41.7847945,7.54706019 42.738237,9.08365937 C43.6909582,10.6202585 44.3782733,11.730275 44.7980188,12.4137086 C44.8845642,12.5263625 44.9271158,12.5826895 44.9271158,12.5826895 L45.0562127,12.5826895 Z M25.5409339,10.1771532 C25.0245461,10.4460205 24.4692127,10.5804542 23.8770976,10.5804542 C22.9835158,10.5804542 22.1865764,10.2777907 21.4862794,9.67171272 C21.0557158,9.3127223 20.7275642,8.87262107 20.5003824,8.35140903 C20.274643,7.83019699 20.1614127,7.28870725 20.1614127,6.72769083 C20.1614127,6.27932832 20.2342552,5.84223119 20.3792188,5.41564843 C20.5249036,4.98981669 20.7434309,4.59102189 21.0333582,4.2215171 L21.30814,3.91885363 C21.6536006,3.57112859 22.0437764,3.30751847 22.4793885,3.12802326 C22.916443,2.94852804 23.3708067,2.85915595 23.8453642,2.85915595 C24.3725703,2.85915595 24.8839097,2.97105882 25.3801036,3.1956156 C26.058043,3.50954446 26.59174,3.98945007 26.9790309,4.63383037 C27.367043,5.27821067 27.5603279,5.97065663 27.5603279,6.71116826 C27.5603279,7.24890287 27.4528673,7.77612312 27.2372248,8.292829 C27.1081279,8.60675787 26.8982552,8.9372093 26.6076067,9.28493434 C26.3169582,9.63265937 25.9606794,9.93006566 25.5409339,10.1771532 L25.5409339,10.1771532 Z M21.4862794,12.2462298 C22.2298491,12.5826895 23.0102006,12.7509193 23.8287764,12.7509193 C24.7872673,12.7509193 25.6815703,12.5323707 26.510243,12.0945226 C26.9739824,11.8369207 27.3641582,11.559041 27.6814915,11.2616347 C27.9995461,10.9649795 28.2930794,10.6202585 28.5620915,10.2267209 C28.9176491,9.7115171 29.1866612,9.15350479 29.3698491,8.55343502 C29.553037,7.95336525 29.6446309,7.33902599 29.6446309,6.71116826 C29.6446309,5.63419699 29.3914855,4.63683447 28.8851945,3.71682763 C28.6594552,3.24518331 28.2959642,2.77128591 27.7947218,2.29513543 C27.2942006,1.81898495 26.7742067,1.4562394 26.2354612,1.20990287 C25.3743339,0.817867305 24.4908491,0.648886457 23.5864491,0.705213406 L23.5381279,0.705213406 C22.6113703,0.761540356 21.8440006,0.965819425 21.2360188,1.31955267 C20.6273158,1.67328591 20.0265461,2.18022845 19.4351521,2.84188235 C18.9822309,3.39163338 18.6432612,4.00296854 18.4175218,4.67588782 C18.19034,5.34880711 18.0778309,6.03224077 18.0778309,6.72769083 C18.0778309,7.37807934 18.1744733,8.0066881 18.3684794,8.61201505 L18.4009339,8.69612996 C18.6483097,9.45917237 19.0392067,10.1516183 19.5721824,10.7742189 C20.1051582,11.3968194 20.7434309,11.8872394 21.4862794,12.2462298 L21.4862794,12.2462298 Z" id="Fill-6" fill="#FFFFFF"></path>
                                <g id="Group-10" transform="translate(73.563636, 0.000000)">
                                    <mask id="mask-2" fill="white">
                                        <use xlink:href="#path-1"></use>
                                    </mask>
                                    <g id="Clip-9"></g>
                                    <path d="M37.5025976,12.5657163 L44.8531915,12.5657163 C44.939737,12.5657163 45.0096945,12.5349242 45.0630642,12.4733401 C45.1178764,12.411756 45.1445612,12.3411595 45.1445612,12.2630528 L45.1445612,10.8496219 C45.1445612,10.7602498 45.1149915,10.6843962 45.0558521,10.622061 C44.9967127,10.5612279 44.9289188,10.5296848 44.8531915,10.5296848 L39.683543,10.5296848 C39.5010764,10.5296848 39.3799127,10.4906315 39.3207733,10.4125248 C39.2609127,10.333667 39.231343,10.2382867 39.231343,10.1263839 L39.231343,8.34269713 C39.231343,8.25332503 39.2558642,8.16695705 39.3041855,8.08209111 C39.3525067,7.9979762 39.4469855,7.95591874 39.5869006,7.95591874 L43.6422764,7.95591874 C43.7172824,7.95591874 43.7814703,7.93038386 43.8355612,7.88081614 C43.8889309,7.82974637 43.9170582,7.76515814 43.9170582,7.68705144 L43.9170582,6.25709795 C43.9170582,6.17824022 43.8889309,6.11365198 43.8355612,6.06333324 C43.7814703,6.0130145 43.7172824,5.98747962 43.6422764,5.98747962 L39.6027673,5.98747962 C39.4412158,5.98747962 39.3388036,5.96870397 39.2962521,5.92889959 C39.2529794,5.88909521 39.231343,5.82000082 39.231343,5.71861231 L39.231343,5.66754254 L39.231343,3.19516498 C39.231343,3.10504186 39.2609127,3.03294337 39.3207733,2.97586539 C39.3799127,2.92028947 39.4469855,2.8925015 39.5227127,2.8925015 L44.7406824,2.8925015 C44.8265067,2.8925015 44.8964642,2.86170944 44.9505552,2.79937428 C45.0039248,2.73854118 45.0306097,2.66794473 45.0306097,2.58983803 L45.0306097,1.17640711 C45.0306097,1.08703502 45.0039248,1.0141855 44.9505552,0.95785855 C44.8964642,0.901531601 44.8265067,0.873743639 44.7406824,0.873743639 L37.5025976,0.873743639 C37.4275915,0.873743639 37.3605188,0.901531601 37.3013794,0.95785855 C37.24224,1.0141855 37.2126703,1.08703502 37.2126703,1.17640711 L37.2126703,12.2630528 C37.2126703,12.3411595 37.24224,12.411756 37.3013794,12.4733401 C37.3605188,12.5349242 37.4275915,12.5657163 37.5025976,12.5657163 M20.8793794,12.616035 L22.139337,12.616035 C22.2251612,12.616035 22.2980036,12.5882471 22.3578642,12.5319201 C22.4162824,12.4763442 22.4465733,12.4027436 22.4465733,12.3133715 L22.4465733,8.61156443 C22.4465733,8.48839617 22.4811915,8.40803639 22.5518703,8.36823201 C22.6211067,8.32842763 22.7213552,8.30965198 22.8504521,8.30965198 L24.22364,8.30965198 C24.3851915,8.30965198 24.4926521,8.32091737 24.546743,8.34269713 C24.6001127,8.36522791 24.6433855,8.41028947 24.67584,8.47788181 L26.3562642,12.414009 C26.3988158,12.5041321 26.4500218,12.5597081 26.5091612,12.5822389 C26.5683006,12.6055207 26.6570097,12.616035 26.7760097,12.616035 L28.1008764,12.616035 C28.2516097,12.616035 28.3266158,12.5544509 28.3266158,12.4305316 C28.3266158,12.3636903 28.3049794,12.2908408 28.2617067,12.211983 L26.3879976,7.85528126 C26.3771794,7.8102197 26.3714097,7.75464378 26.3714097,7.68705144 C26.3714097,7.6194591 26.4038642,7.56388317 26.4687733,7.51807059 C26.9101552,7.17109658 27.2577794,6.73925663 27.5109248,6.22330178 C27.7640703,5.70734692 27.8910036,5.15834692 27.8910036,4.5740487 C27.8910036,3.89061505 27.7258461,3.26200629 27.3976945,2.69047551 C27.0688218,2.11894473 26.6252764,1.66382298 26.0656158,1.32736334 C25.5045127,0.99165472 24.8914824,0.822673871 24.22364,0.822673871 L20.8793794,0.822673871 C20.7928339,0.822673871 20.7199915,0.854216963 20.6608521,0.915050068 C20.6017127,0.977385226 20.572143,1.05323885 20.572143,1.14261094 L20.572143,3.85081067 C20.572143,3.96346457 20.6125309,4.06184897 20.6933067,4.14521286 C20.7748036,4.22932777 20.8685612,4.27213625 20.9760218,4.27213625 L22.0419733,4.27213625 C22.1609733,4.27213625 22.2576158,4.22932777 22.333343,4.14521286 C22.4083491,4.06184897 22.4465733,3.96346457 22.4465733,3.85081067 L22.4465733,3.43098714 C22.4465733,3.31833324 22.4869612,3.22069986 22.567737,3.13583393 C22.6477915,3.05247004 22.74804,3.00966156 22.8663188,3.00966156 L24.22364,3.00966156 C24.6542036,3.00966156 25.0169733,3.16211984 25.3141127,3.46478331 C25.6098097,3.76669576 25.7583794,4.13695157 25.7583794,4.5740487 C25.7583794,5.00138249 25.6098097,5.36487907 25.3141127,5.66754254 C25.0169733,5.97095705 24.6542036,6.1226643 24.22364,6.1226643 L20.8793794,6.1226643 C20.7928339,6.1226643 20.7199915,6.15345636 20.6608521,6.21504049 C20.6017127,6.27662462 20.572143,6.35247825 20.572143,6.44185034 L20.572143,12.3133715 C20.572143,12.4027436 20.6017127,12.4763442 20.6608521,12.5319201 C20.7199915,12.5882471 20.7928339,12.616035 20.8793794,12.616035 M7.6646097,10.1767026 C7.14750061,10.4463209 6.59288848,10.5800036 6.00005212,10.5800036 C5.1064703,10.5800036 4.31025212,10.2773401 3.60995515,9.67126211 C3.1786703,9.31302271 2.85051879,8.87292148 2.62477939,8.35170944 C2.39759758,7.82974637 2.28508848,7.28900766 2.28508848,6.72799124 C2.28508848,6.27962873 2.35793091,5.8425316 2.50289455,5.41519781 C2.64857939,4.98936607 2.86710667,4.5913223 3.15703394,4.22181751 L3.43181576,3.91840301 C3.77655515,3.57067798 4.16673091,3.30781888 4.60306424,3.12832367 C5.03939758,2.94807743 5.49448242,2.85870534 5.96831879,2.85870534 C6.49624606,2.85870534 7.00758545,2.97135923 7.50305818,3.19516498 C8.18171879,3.50909384 8.71469455,3.98899945 9.10198545,4.63337975 C9.48999758,5.27851108 9.68400364,5.97095705 9.68400364,6.71071765 C9.68400364,7.24920328 9.57582182,7.77642353 9.36017939,8.29312941 C9.23180364,8.60705828 9.02193091,8.93750971 8.73056121,9.28523475 C8.43991273,9.63295978 8.08435515,9.92961505 7.6646097,10.1767026 M3.60995515,12.2457792 C4.35280364,12.5822389 5.13315515,12.7504687 5.95245212,12.7504687 C6.91022182,12.7504687 7.80452485,12.5319201 8.63391879,12.094823 C9.09693697,11.83647 9.48711273,11.5585904 9.80516727,11.2619352 C10.1225006,10.9645289 10.4160339,10.6198079 10.6850461,10.2270213 C11.0413248,9.71106648 11.310337,9.15305417 11.4935248,8.5529844 C11.6759915,7.95291464 11.7675855,7.3393264 11.7675855,6.71071765 C11.7675855,5.6344974 11.5151612,4.63638386 11.0088703,3.71712804 C10.7824097,3.24548372 10.4189188,2.77158632 9.91839758,2.29468482 C9.41787636,1.81853434 8.89788242,1.45653981 8.35913697,1.21020328 C7.49728848,0.817416689 6.61452485,0.649186867 5.71012485,0.705513817 L5.66180364,0.705513817 C4.73432485,0.76108974 3.96767636,0.966119836 3.35897333,1.31910205 C2.7502703,1.67283529 2.14950061,2.18052886 1.55810667,2.84218276 C1.10518545,3.39118276 0.766215758,4.00326895 0.540476364,4.67543721 C0.314015758,5.34910752 0.200785455,6.03254118 0.200785455,6.72799124 C0.200785455,7.37837975 0.297427879,8.00698851 0.492155152,8.61156443 L0.524609697,8.69643037 C0.771264242,9.45872175 1.16216121,10.1511677 1.69585818,10.7737683 C2.22883394,11.3963688 2.86710667,11.8875398 3.60995515,12.2457792" id="Fill-8" fill="#FFFFFF" mask="url(#mask-2)"></path>
                                </g>
                            </g>
                        </g>
                    </g>
                </g>
            </g>
        </g>
    </g>
</svg>