<?xml version="1.0" encoding="UTF-8"?>
<svg width="250px" height="93px" viewBox="0 0 250 93" version="1.1" xmlns="http://www.w3.org/2000/svg" xmlns:xlink="http://www.w3.org/1999/xlink">
    <!-- Generator: sketchtool 53 (72520) - https://sketchapp.com -->
    <title>B27C906C-D24D-458F-982E-F429148B8FA5</title>
    <desc>Created with sketchtool.</desc>
    <defs>
        <linearGradient x1="17.7206889%" y1="50.4300702%" x2="89.222135%" y2="49.651554%" id="linearGradient-1">
            <stop stop-color="#5F8BE3" offset="0%"></stop>
            <stop stop-color="#A540B0" offset="100%"></stop>
        </linearGradient>
        <linearGradient x1="17.7206889%" y1="50.8872493%" x2="89.222135%" y2="49.281144%" id="linearGradient-2">
            <stop stop-color="#5F8BE3" offset="0%"></stop>
            <stop stop-color="#A540B0" offset="100%"></stop>
        </linearGradient>
    </defs>
    <g id="Desktop" stroke="none" stroke-width="1" fill="none" fill-rule="evenodd">
        <g id="HomepageConcore" transform="translate(-837.000000, -1303.000000)" fill-rule="nonzero">
            <g id="Group-2" transform="translate(811.000000, 1272.000000)">
                <g id="Group-7" transform="translate(26.000000, 31.000000)">
                    <g id="Group-3" transform="translate(67.000000, 61.000000)" stroke="url(#linearGradient-1)" stroke-width="1.3">
                        <path d="M6.16,0 L19.536,0 C22.7040158,0 25.4466551,0.52066146 27.764,1.562 C30.0813449,2.60333854 31.8633271,4.09932358 33.11,6.05 C34.3566729,8.00067642 34.98,10.2959868 34.98,12.936 C34.98,16.5146846 34.1660081,19.6533198 32.538,22.352 C30.9099919,25.0506802 28.6440145,27.133326 25.74,28.6 C22.8359855,30.066674 19.5066854,30.8 15.752,30.8 L0,30.8 L6.16,0 Z M16.016,23.848 C18.1280106,23.848 19.9539923,23.4006711 21.494,22.506 C23.0340077,21.6113289 24.199996,20.3793412 24.992,18.81 C25.784004,17.2406588 26.18,15.4586766 26.18,13.464 C26.18,11.3813229 25.5346731,9.77533898 24.244,8.646 C22.9533269,7.51666102 21.0613458,6.952 18.568,6.952 L13.464,6.952 L10.12,23.848 L16.016,23.848 Z M68.068,9.812 C68.068,12.6280141 67.3200075,15.0553231 65.824,17.094 C64.3279925,19.1326769 62.2306802,20.6213286 59.532,21.56 L64.768,30.8 L55.66,30.8 L51.084,22.616 L46.684,22.616 L45.056,30.8 L36.344,30.8 L42.504,0 L55.66,0 C59.5906863,0 62.6413225,0.86532468 64.812,2.596 C66.9826775,4.32667532 68.068,6.7319846 68.068,9.812 Z M59.268,10.648 C59.268,9.38666036 58.8426709,8.44066982 57.992,7.81 C57.1413291,7.17933018 55.953341,6.864 54.428,6.864 L49.852,6.864 L48.004,15.884 L53.196,15.884 C55.1320097,15.884 56.6279947,15.4293379 57.684,14.52 C58.7400053,13.6106621 59.268,12.3200084 59.268,10.648 Z M75.064,0 L83.776,0 L77.616,30.8 L68.904,30.8 L75.064,0 Z M121.088,0 L101.772,30.8 L93.192,30.8 L86.196,0 L95.128,0 L99.528,20.02 L112.112,0 L121.088,0 Z M130.152,6.732 L129.14,11.924 L142.824,11.924 L141.548,18.436 L127.82,18.436 L126.72,24.068 L142.868,24.068 L141.46,30.8 L116.776,30.8 L122.936,0 L147.048,0 L145.684,6.732 L130.152,6.732 Z M181.764,0 L175.604,30.8 L168.432,30.8 L158.268,13.904 L154.88,30.8 L146.344,30.8 L152.504,0 L159.676,0 L169.884,16.852 L173.228,0 L181.764,0 Z" id="DRIVEN"></path>
                    </g>
                    <path d="M9.1572327,0 L29.0415094,0 C33.7509669,0 37.828075,0.777611271 41.272956,2.33285714 C44.7178369,3.88810301 47.366867,6.12236639 49.2201258,9.03571429 C51.0733845,11.9490622 52,15.3771231 52,19.32 C52,24.6647886 50.7899492,29.3523608 48.3698113,33.3828571 C45.9496734,37.4133535 42.5811537,40.5237986 38.2641509,42.7142857 C33.9471482,44.9047729 28.9979315,46 23.4163522,46 L-1.13686838e-13,46 L9.1572327,0 Z M23.8109589,35 C26.9671391,35 29.6958789,34.3381143 31.9972603,33.0143229 C34.2986416,31.6905316 36.04109,29.8676331 37.2246575,27.5455729 C38.4082251,25.2235127 39,22.5868203 39,19.6354167 C39,16.553804 38.0356261,14.1775257 36.1068493,12.5065104 C34.1780725,10.8354951 31.3507036,10 27.6246575,10 L19.9972603,10 L15,35 L23.8109589,35 Z M86.3321033,37.0628571 L66.9052891,37.0628571 L61.6248462,46 L48,46 L77.2706027,0 L89.9827798,0 L101,46 L88.1574416,46 L86.3321033,37.0628571 Z M85,27 L81.8839779,12 L73,27 L85,27 Z M119.028832,10.3171429 L105,10.3171429 L107.088012,0 L148,0 L145.911988,10.3171429 L131.948407,10.3171429 L124.836115,46 L111.91654,46 L119.028832,10.3171429 Z M174.332103,37.0628571 L154.905289,37.0628571 L149.624846,46 L136,46 L165.270603,0 L177.98278,0 L189,46 L176.157442,46 L174.332103,37.0628571 Z M172,27 L168.883978,12 L160,27 L172,27 Z" id="DATA" fill="url(#linearGradient-2)"></path>
                </g>
            </g>
        </g>
    </g>
</svg>