<?xml version="1.0" encoding="UTF-8"?>
<svg width="197px" height="119px" viewBox="0 0 197 119" version="1.1" xmlns="http://www.w3.org/2000/svg" xmlns:xlink="http://www.w3.org/1999/xlink">
    <!-- Generator: sketchtool 53 (72520) - https://sketchapp.com -->
    <title>10ACC827-D724-43AF-8B38-AD853EF80AF2</title>
    <desc>Created with sketchtool.</desc>
    <defs>
        <linearGradient x1="17.7206889%" y1="51.0674465%" x2="89.222135%" y2="49.135147%" id="linearGradient-1">
            <stop stop-color="#5F8BE3" offset="0%"></stop>
            <stop stop-color="#A540B0" offset="100%"></stop>
        </linearGradient>
        <linearGradient x1="17.7206889%" y1="50.712132%" x2="89.4341257%" y2="49.4192034%" id="linearGradient-2">
            <stop stop-color="#5F8BE3" offset="0%"></stop>
            <stop stop-color="#A540B0" offset="99.7043919%"></stop>
        </linearGradient>
        <linearGradient x1="17.7206889%" y1="53.9738438%" x2="89.222135%" y2="46.7803623%" id="linearGradient-3">
            <stop stop-color="#5F8BE3" offset="0%"></stop>
            <stop stop-color="#A540B0" offset="100%"></stop>
        </linearGradient>
    </defs>
    <g id="Desktop" stroke="none" stroke-width="1" fill="none" fill-rule="evenodd">
        <g id="HomepageConcore" transform="translate(-222.000000, -1289.000000)" fill-rule="nonzero">
            <g id="Group-4" transform="translate(170.000000, 1272.000000)">
                <g id="Group-5" transform="translate(53.000000, 17.000000)">
                    <path d="M31.416,64.462 L26.862,87.562 L20.823,87.562 L23.199,75.385 L15.51,85.285 L12.639,85.285 L8.448,75.385 L6.006,87.562 L0,87.562 L4.62,64.462 L9.933,64.462 L15.345,77.827 L25.839,64.462 L31.416,64.462 Z M48.114,83.074 L38.28,83.074 L35.607,87.562 L28.71,87.562 L43.527,64.462 L49.962,64.462 L55.539,87.562 L49.038,87.562 L48.114,83.074 Z M47.124,78.256 L45.573,70.765 L41.151,78.256 L47.124,78.256 Z M62.04,64.462 L68.574,64.462 L63.954,87.562 L57.42,87.562 L62.04,64.462 Z M77.22,88.024 C75.3059904,88.024 73.4910086,87.7930023 71.775,87.331 C70.0589914,86.8689977 68.6620054,86.2750036 67.584,85.549 L70.158,80.665 C71.3240058,81.4130037 72.5669934,81.9794981 73.887,82.3645 C75.2070066,82.7495019 76.5269934,82.942 77.847,82.942 C79.1010063,82.942 80.0744965,82.7605018 80.7675,82.3975 C81.4605035,82.0344982 81.807,81.5340032 81.807,80.896 C81.807,80.3459973 81.4935031,79.9170015 80.8665,79.609 C80.2394969,79.3009985 79.2660066,78.9710018 77.946,78.619 C76.4499925,78.222998 75.207005,77.821502 74.217,77.4145 C73.2269951,77.007498 72.3745036,76.3860042 71.6595,75.55 C70.9444964,74.7139958 70.587,73.6140068 70.587,72.25 C70.587,70.5999918 71.0379955,69.1535062 71.94,67.9105 C72.8420045,66.6674938 74.1289916,65.7050034 75.801,65.023 C77.4730084,64.3409966 79.4309888,64 81.675,64 C83.3250082,64 84.8649929,64.1704983 86.295,64.5115 C87.7250072,64.8525017 88.9569948,65.3419968 89.991,65.98 L87.615,70.831 C86.7129955,70.2589971 85.7175054,69.8245015 84.6285,69.5275 C83.5394946,69.2304985 82.4230057,69.082 81.279,69.082 C79.9809935,69.082 78.9635037,69.2909979 78.2265,69.709 C77.4894963,70.1270021 77.121,70.6659967 77.121,71.326 C77.121,71.8980029 77.4399968,72.3379985 78.078,72.646 C78.7160032,72.9540015 79.7059933,73.2839982 81.048,73.636 C82.5440075,74.0100019 83.7814951,74.394998 84.7605,74.791 C85.7395049,75.187002 86.5809965,75.7919959 87.285,76.606 C87.9890035,77.4200041 88.341,78.4869934 88.341,79.807 C88.341,81.4350081 87.8845046,82.8704938 86.9715,84.1135 C86.0584954,85.3565062 84.7605084,86.3189966 83.0775,87.001 C81.3944916,87.6830034 79.4420111,88.024 77.22,88.024 Z" id="MAISRÁPIDO" stroke="url(#linearGradient-1)" stroke-width="1.3"></path>
                    <path d="M78.793,101.818 C78.793,103.930011 78.2320056,105.750492 77.11,107.2795 C75.9879944,108.808508 74.4150101,109.924996 72.391,110.629 L76.318,117.559 L69.487,117.559 L66.055,111.421 L62.755,111.421 L61.534,117.559 L55,117.559 L59.62,94.459 L69.487,94.459 C72.4350147,94.459 74.7229919,95.1079935 76.351,96.406 C77.9790081,97.7040065 78.793,99.5079884 78.793,101.818 Z M72.193,102.445 C72.193,101.498995 71.8740032,100.789502 71.236,100.3165 C70.5979968,99.8434976 69.7070057,99.607 68.563,99.607 L65.131,99.607 L63.745,106.372 L67.639,106.372 C69.0910073,106.372 70.212996,106.031003 71.005,105.349 C71.797004,104.666997 72.193,103.699006 72.193,102.445 Z M96.052,113.071 L86.218,113.071 L83.545,117.559 L76.648,117.559 L91.465,94.459 L97.9,94.459 L103.477,117.559 L96.976,117.559 L96.052,113.071 Z M95.062,108.253 L93.511,100.762 L89.089,108.253 L95.062,108.253 Z M96.679,87.562 L103.147,87.562 L96.382,92.578 L91.729,92.578 L96.679,87.562 Z M119.746,94.459 C122.738015,94.459 125.047992,95.1079935 126.676,96.406 C128.304008,97.7040065 129.118,99.5299882 129.118,101.884 C129.118,103.82001 128.650505,105.513993 127.7155,106.966 C126.780495,108.418007 125.449509,109.539996 123.7225,110.332 C121.995491,111.124004 119.988011,111.52 117.7,111.52 L113.08,111.52 L111.892,117.559 L105.358,117.559 L109.978,94.459 L119.746,94.459 Z M117.997,106.372 C119.449007,106.372 120.565496,106.031003 121.3465,105.349 C122.127504,104.666997 122.518,103.699006 122.518,102.445 C122.518,101.498995 122.204503,100.789502 121.5775,100.3165 C120.950497,99.8434976 120.054006,99.607 118.888,99.607 L115.456,99.607 L114.103,106.372 L117.997,106.372 Z M133.969,94.459 L140.503,94.459 L135.883,117.559 L129.349,117.559 L133.969,94.459 Z M145.156,94.459 L155.188,94.459 C157.564012,94.459 159.620991,94.8494961 161.359,95.6305 C163.097009,96.4115039 164.433495,97.5334927 165.3685,98.9965 C166.303505,100.459507 166.771,102.18099 166.771,104.161 C166.771,106.845013 166.160506,109.19899 164.9395,111.223 C163.718494,113.24701 162.019011,114.808994 159.841,115.909 C157.662989,117.009005 155.166014,117.559 152.35,117.559 L140.536,117.559 L145.156,94.459 Z M152.548,112.345 C154.132008,112.345 155.501494,112.009503 156.6565,111.3385 C157.811506,110.667497 158.685997,109.743506 159.28,108.5665 C159.874003,107.389494 160.171,106.053007 160.171,104.557 C160.171,102.994992 159.687005,101.790504 158.719,100.9435 C157.750995,100.096496 156.332009,99.673 154.462,99.673 L150.634,99.673 L148.126,112.345 L152.548,112.345 Z M180.268,118.021 C177.935988,118.021 175.906509,117.592004 174.1795,116.734 C172.452491,115.875996 171.121505,114.677008 170.1865,113.137 C169.251495,111.596992 168.784,109.83701 168.784,107.857 C168.784,105.216987 169.394494,102.841011 170.6155,100.729 C171.836506,98.6169894 173.541489,96.9670059 175.7305,95.779 C177.919511,94.5909941 180.410986,93.997 183.205,93.997 C185.537012,93.997 187.566491,94.4259957 189.2935,95.284 C191.020509,96.1420043 192.351495,97.3409923 193.2865,98.881 C194.221505,100.421008 194.689,102.18099 194.689,104.161 C194.689,106.801013 194.078506,109.176989 192.8575,111.289 C191.636494,113.401011 189.931511,115.050994 187.7425,116.239 C185.553489,117.427006 183.062014,118.021 180.268,118.021 Z M180.829,112.609 C182.281007,112.609 183.556995,112.246004 184.657,111.52 C185.757005,110.793996 186.603997,109.820506 187.198,108.5995 C187.792003,107.378494 188.089,106.031007 188.089,104.557 C188.089,102.994992 187.610505,101.746505 186.6535,100.8115 C185.696495,99.8764953 184.360009,99.409 182.644,99.409 C181.191993,99.409 179.916006,99.7719964 178.816,100.498 C177.715994,101.224004 176.869003,102.197494 176.275,103.4185 C175.680997,104.639506 175.384,105.986993 175.384,107.461 C175.384,109.023008 175.862495,110.271495 176.8195,111.2065 C177.776505,112.141505 179.112991,112.609 180.829,112.609 Z" id="MAISRÁPIDO-Copy" stroke="url(#linearGradient-2)" stroke-width="1.3"></path>
                    <path d="M75.278,46.978 L66.646,46.978 L64.405,58.1 L48.469,58.1 L50.71,46.978 L20,46.978 L22.075,36.271 L54.777,1.70530257e-13 L72.456,1.70530257e-13 L42.493,33.947 L54.03,33.947 L56.022,24.07 L71.211,24.07 L69.219,33.947 L77.934,33.947 L75.278,46.978 Z M111.051,35.773 L123.252,58.1 L106.486,58.1 L100.344,46.314 L89.471,58.1 L71.626,58.1 L94.119,35.026 L82.25,13.114 L98.767,13.114 L104.743,24.568 L115.45,13.114 L132.797,13.114 L111.051,35.773 Z" id="4x-copy" fill="url(#linearGradient-3)"></path>
                </g>
            </g>
        </g>
    </g>
</svg>