<?xml version="1.0" encoding="UTF-8"?>
<svg width="273px" height="92px" viewBox="0 0 273 92" version="1.1" xmlns="http://www.w3.org/2000/svg" xmlns:xlink="http://www.w3.org/1999/xlink">
    <!-- Generator: sketchtool 53 (72520) - https://sketchapp.com -->
    <title>C9BDCB1A-DB21-4F0F-B942-82A1EF6919E1</title>
    <desc>Created with sketchtool.</desc>
    <defs>
        <linearGradient x1="17.7206889%" y1="50.7884632%" x2="89.222135%" y2="49.3611813%" id="linearGradient-1">
            <stop stop-color="#5F8BE3" offset="0%"></stop>
            <stop stop-color="#A540B0" offset="100%"></stop>
        </linearGradient>
        <linearGradient x1="17.7206889%" y1="50.3451643%" x2="89.222135%" y2="49.7203454%" id="linearGradient-2">
            <stop stop-color="#5F8BE3" offset="0%"></stop>
            <stop stop-color="#A540B0" offset="100%"></stop>
        </linearGradient>
    </defs>
    <g id="Desktop" stroke="none" stroke-width="1" fill="none" fill-rule="evenodd">
        <g id="HomepageConcore" transform="translate(-504.000000, -1308.000000)" fill-rule="nonzero">
            <g id="Group-8" transform="translate(490.000000, 1272.000000)">
                <g id="Group-6" transform="translate(14.000000, 36.000000)">
                    <path d="M17.2017673,44 C13.7849608,44 10.5449343,43.5769273 7.48159057,42.7307692 C4.41824683,41.8846112 1.92440825,40.7967099 0,39.467033 L4.59499264,30.521978 C6.67649543,31.8919482 8.89542268,32.9294837 11.2518409,33.6346154 C13.6082592,34.3397471 15.9646421,34.6923077 18.3210604,34.6923077 C20.5596577,34.6923077 22.2974901,34.3598934 23.5346097,33.6950549 C24.7717293,33.0302165 25.3902798,32.113559 25.3902798,30.9450549 C25.3902798,29.9377239 24.8306389,29.1520175 23.7113402,28.5879121 C22.5920415,28.0238067 20.8542091,27.4194171 18.4977909,26.7747253 C15.8271835,26.0494469 13.6082563,25.3141063 11.8409426,24.5686813 C10.0736289,23.8232563 8.55179823,22.6849893 7.27540501,21.1538462 C5.99901178,19.622703 5.36082474,17.6080711 5.36082474,15.1098901 C5.36082474,12.087897 6.16592224,9.43865607 7.77614138,7.16208791 C9.38636053,4.88551975 11.6838339,3.12271687 14.6686303,1.87362637 C17.6534268,0.624535879 21.1487281,0 25.1546392,0 C28.100162,0 30.8492754,0.31226794 33.4020619,0.936813187 C35.9548483,1.56135843 38.154139,2.45786962 40,3.62637363 L35.7584683,12.510989 C34.1482492,11.4633647 32.3711437,10.6675851 30.4270987,10.1236264 C28.4830536,9.57966761 26.4899464,9.30769231 24.4477172,9.30769231 C22.1305726,9.30769231 20.3141941,9.69047236 18.9985272,10.456044 C17.6828604,11.2216155 17.0250368,12.2087852 17.0250368,13.4175824 C17.0250368,14.4652067 17.594496,15.2710595 18.7334315,15.8351648 C19.872367,16.3992702 21.6396542,17.0036598 24.0353461,17.6483516 C26.7059535,18.3333368 28.9150624,19.0384579 30.6627393,19.7637363 C32.4104162,20.4890146 33.9126103,21.5970621 35.1693667,23.0879121 C36.4261231,24.578762 37.0544919,26.5329549 37.0544919,28.9505495 C37.0544919,31.9322493 36.2395761,34.5613439 34.6097202,36.8379121 C32.9798642,39.1144802 30.6627543,40.8772831 27.6583211,42.1263736 C24.6538878,43.3754641 21.1684047,44 17.2017673,44 Z M75.289172,44.5368063 C76.4467149,44.5368063 77.6042405,44.2867145 78.7617834,43.7865232 C79.9193264,43.286332 80.9571079,42.5960784 81.8751592,41.7157418 L86.2458599,48.7383918 C84.80891,50.1389273 83.062643,51.1993169 81.0070064,51.9195923 C78.9513698,52.6398677 76.7061693,53 74.2713376,53 C66.607605,53 60.8798491,49.7187946 57.0878981,43.1562854 C52.3778958,42.1559029 48.6857883,40.0551311 46.011465,36.8539071 C43.3371416,33.6526831 42,29.7712572 42,25.209513 C42,20.407677 43.1076322,16.0860894 45.3229299,12.2446206 C47.5382276,8.4031518 50.631615,5.40204931 54.6031847,3.2412231 C58.5747545,1.0803969 63.0950914,0 68.1643312,0 C72.3953502,0 76.077479,0.780286648 79.210828,2.34088335 C82.344177,3.90148006 84.7590149,6.0822812 86.455414,8.88335221 C88.1518132,11.6844232 89,14.8855992 89,18.4869762 C89,22.4084756 88.2515998,26.0198023 86.7547771,29.3210646 C85.2579543,32.6223268 83.1524552,35.4133521 80.4382166,37.6942242 C77.7239779,39.9750963 74.5308039,41.615699 70.8585987,42.6160815 C71.4573278,43.2963416 72.1059413,43.7865217 72.8044586,44.0866365 C73.5029759,44.3867512 74.3312054,44.5368063 75.289172,44.5368063 Z M67.1428571,10 C64.5142726,10 62.204339,10.6599934 60.212987,11.98 C58.2216351,13.3000066 56.6883171,15.0699889 55.612987,17.29 C54.537657,19.5100111 54,21.9599866 54,24.64 C54,27.4800142 54.8662251,29.7499915 56.5987013,31.45 C58.3311775,33.1500085 60.7506338,34 63.8571429,34 C66.4857274,34 68.795661,33.3400066 70.787013,32.02 C72.7783649,30.6999934 74.3116829,28.9300111 75.387013,26.71 C76.462343,24.4899889 77,22.0400134 77,19.36 C77,16.5199858 76.1337749,14.2500085 74.4012987,12.55 C72.6688225,10.8499915 70.2493662,10 67.1428571,10 Z M111.351279,44 C107.758618,44 104.659502,43.3877279 102.053836,42.1631653 C99.44817,40.9386027 97.4544708,39.1820843 96.0726783,36.8935574 C94.6908859,34.6050306 94,31.9150481 94,28.8235294 C94,27.5387424 94.1579168,26.0532297 94.473755,24.3669468 L99.0928668,1 L110.818304,1 L106.258412,24.1862745 C106.021533,25.3907623 105.903096,26.4948596 105.903096,27.4985994 C105.903096,31.9150548 108.192889,34.1232493 112.772544,34.1232493 C115.25977,34.1232493 117.22386,33.3503812 118.664872,31.8046218 C120.105884,30.2588625 121.181692,27.7194388 121.892328,24.1862745 L126.452221,1 L138,1 L133.321669,24.9089636 C130.794963,37.6363848 123.471572,44 111.351279,44 Z M166.715867,34.84 L149.121771,34.84 L144.339483,43 L132,43 L158.509225,1 L170.02214,1 L180,43 L168.369004,43 L166.715867,34.84 Z M165,26 L162.143646,12 L154,26 L165,26 Z M192.27673,1 L210.249057,1 C214.505682,1 218.19076,1.7099929 221.304403,3.13 C224.418045,4.5500071 226.812361,6.5899867 228.487421,9.25 C230.162482,11.9100133 231,15.039982 231,18.64 C231,23.5200244 229.9063,27.7999816 227.718868,31.48 C225.531436,35.1600184 222.486812,37.99999 218.584906,40 C214.682999,42.00001 210.209669,43 205.16478,43 L184,43 L192.27673,1 Z M205.076712,33 C207.969877,33 210.471222,32.3910651 212.580822,31.1731771 C214.690422,29.955289 216.287666,28.2782225 217.372603,26.1419271 C218.45754,24.0056317 219,21.5798747 219,18.8645833 C219,16.0294997 218.115991,13.8433237 216.347945,12.3059896 C214.5799,10.7686555 211.988145,10 208.572603,10 L201.580822,10 L197,33 L205.076712,33 Z" id="SQUAD" fill="url(#linearGradient-1)"></path>
                    <path d="M24.48,59.976 L34.208,59.976 C36.5120115,59.976 38.5066582,60.3546629 40.192,61.112 C41.8773418,61.8693371 43.1733288,62.9573262 44.08,64.376 C44.9866712,65.7946738 45.44,67.4639904 45.44,69.384 C45.44,71.9866797 44.8480059,74.2693235 43.664,76.232 C42.4799941,78.1946765 40.8320106,79.709328 38.72,80.776 C36.6079894,81.842672 34.1866803,82.376 31.456,82.376 L20,82.376 L24.48,59.976 Z M31.648,77.32 C33.1840077,77.32 34.5119944,76.9946699 35.632,76.344 C36.7520056,75.6933301 37.5999971,74.797339 38.176,73.656 C38.7520029,72.514661 39.04,71.2186739 39.04,69.768 C39.04,68.2533258 38.5706714,67.0853374 37.632,66.264 C36.6933286,65.4426626 35.3173424,65.032 33.504,65.032 L29.792,65.032 L27.36,77.32 L31.648,77.32 Z M56.16,64.872 L55.424,68.648 L65.376,68.648 L64.448,73.384 L54.464,73.384 L53.664,77.48 L65.408,77.48 L64.384,82.376 L46.432,82.376 L50.912,59.976 L68.448,59.976 L67.456,64.872 L56.16,64.872 Z M91.04,59.976 L97.376,59.976 L92.896,82.376 L86.56,82.376 L91.04,59.976 Z M123.168,59.976 L118.688,82.376 L113.472,82.376 L106.08,70.088 L103.616,82.376 L97.408,82.376 L101.888,59.976 L107.104,59.976 L114.528,72.232 L116.96,59.976 L123.168,59.976 Z M135.296,82.824 C133.034655,82.824 131.066675,82.4080042 129.392,81.576 C127.717325,80.7439958 126.426671,79.5813408 125.52,78.088 C124.613329,76.5946592 124.16,74.8880096 124.16,72.968 C124.16,70.4079872 124.751994,68.1040102 125.936,66.056 C127.120006,64.0079898 128.773323,62.4080058 130.896,61.256 C133.018677,60.1039942 135.434653,59.528 138.144,59.528 C140.405345,59.528 142.373325,59.9439958 144.048,60.776 C145.722675,61.6080042 147.013329,62.7706592 147.92,64.264 C148.826671,65.7573408 149.28,67.4639904 149.28,69.384 C149.28,71.9440128 148.688006,74.2479898 147.504,76.296 C146.319994,78.3440102 144.666677,79.9439942 142.544,81.096 C140.421323,82.2480058 138.005347,82.824 135.296,82.824 Z M135.84,77.576 C137.248007,77.576 138.485328,77.2240035 139.552,76.52 C140.618672,75.8159965 141.439997,74.8720059 142.016,73.688 C142.592003,72.5039941 142.88,71.1973405 142.88,69.768 C142.88,68.2533258 142.416005,67.0426712 141.488,66.136 C140.559995,65.2293288 139.264008,64.776 137.6,64.776 C136.191993,64.776 134.954672,65.1279965 133.888,65.832 C132.821328,66.5360035 132.000003,67.4799941 131.424,68.664 C130.847997,69.8480059 130.56,71.1546595 130.56,72.584 C130.56,74.0986742 131.023995,75.3093288 131.952,76.216 C132.880005,77.1226712 134.175992,77.576 135.84,77.576 Z M176.672,59.976 L162.624,82.376 L156.384,82.376 L151.296,59.976 L157.792,59.976 L160.992,74.536 L170.144,59.976 L176.672,59.976 Z M188.896,78.024 L179.36,78.024 L176.768,82.376 L170.08,82.376 L184.448,59.976 L190.688,59.976 L196.096,82.376 L189.792,82.376 L188.896,78.024 Z M187.936,73.352 L186.432,66.088 L182.144,73.352 L187.936,73.352 Z M209.824,82.824 C207.562655,82.824 205.578675,82.4133374 203.872,81.592 C202.165325,80.7706626 200.853338,79.6133408 199.936,78.12 C199.018662,76.6266592 198.56,74.909343 198.56,72.968 C198.56,70.4079872 199.151994,68.1040102 200.336,66.056 C201.520006,64.0079898 203.178656,62.4080058 205.312,61.256 C207.445344,60.1039942 209.87732,59.528 212.608,59.528 C214.677344,59.528 216.511992,59.8959963 218.112,60.632 C219.712008,61.3680037 220.906663,62.4079933 221.696,63.752 L217.12,67.4 C216.031995,65.6506579 214.389344,64.776 212.192,64.776 C210.76266,64.776 209.504005,65.1119966 208.416,65.784 C207.327995,66.4560034 206.480003,67.3839941 205.872,68.568 C205.263997,69.7520059 204.96,71.0799926 204.96,72.552 C204.96,74.0666742 205.450662,75.2826621 206.432,76.2 C207.413338,77.1173379 208.746658,77.576 210.432,77.576 C212.565344,77.576 214.389326,76.7120086 215.904,74.984 L219.648,78.664 C218.431994,80.1360074 217.013341,81.1973301 215.392,81.848 C213.770659,82.4986699 211.914677,82.824 209.824,82.824 Z M206.024,91.216 C205.426664,91.216 204.850669,91.1520006 204.296,91.024 C203.741331,90.8959994 203.261335,90.736001 202.856,90.544 L204.136,88.144 C204.733336,88.4426682 205.426663,88.592 206.216,88.592 C206.749336,88.592 207.154665,88.5013342 207.432,88.32 C207.709335,88.1386658 207.848,87.8986682 207.848,87.6 C207.848,87.1306643 207.432004,86.896 206.6,86.896 L205.352,86.896 L206.92,83.376 L210.088,83.376 L209.256,85.296 C209.981337,85.4026672 210.535998,85.6586646 210.92,86.064 C211.304002,86.4693354 211.496,86.9493306 211.496,87.504 C211.496,88.6560058 210.994672,89.5626634 209.992,90.224 C208.989328,90.8853366 207.666675,91.216 206.024,91.216 Z M236.96,78.024 L227.424,78.024 L224.832,82.376 L218.144,82.376 L232.512,59.976 L238.752,59.976 L244.16,82.376 L237.856,82.376 L236.96,78.024 Z M236,73.352 L234.496,66.088 L230.208,73.352 L236,73.352 Z M238.752,58.376 C238.154664,58.376 237.632002,58.2693344 237.184,58.056 C236.735998,57.8426656 236.266669,57.5440019 235.776,57.16 C235.413332,56.8826653 235.114668,56.6853339 234.88,56.568 C234.645332,56.4506661 234.410668,56.392 234.176,56.392 C233.749331,56.392 233.392001,56.5413318 233.104,56.84 C232.815999,57.1386682 232.618667,57.554664 232.512,58.088 L229.536,58.088 C229.813335,56.4453251 230.357329,55.186671 231.168,54.312 C231.978671,53.437329 232.991994,53 234.208,53 C234.784003,53 235.290664,53.1013323 235.728,53.304 C236.165336,53.5066677 236.650664,53.7999981 237.184,54.184 C237.504002,54.4400013 237.786665,54.6319994 238.032,54.76 C238.277335,54.8880006 238.527999,54.952 238.784,54.952 C239.189335,54.952 239.535999,54.8080014 239.824,54.52 C240.112001,54.2319986 240.309333,53.8426691 240.416,53.352 L243.392,53.352 C243.114665,54.9733414 242.576004,56.2159957 241.776,57.08 C240.975996,57.9440043 239.968006,58.376 238.752,58.376 Z M257.76,82.824 C255.498655,82.824 253.530675,82.4080042 251.856,81.576 C250.181325,80.7439958 248.890671,79.5813408 247.984,78.088 C247.077329,76.5946592 246.624,74.8880096 246.624,72.968 C246.624,70.4079872 247.215994,68.1040102 248.4,66.056 C249.584006,64.0079898 251.237323,62.4080058 253.36,61.256 C255.482677,60.1039942 257.898653,59.528 260.608,59.528 C262.869345,59.528 264.837325,59.9439958 266.512,60.776 C268.186675,61.6080042 269.477329,62.7706592 270.384,64.264 C271.290671,65.7573408 271.744,67.4639904 271.744,69.384 C271.744,71.9440128 271.152006,74.2479898 269.968,76.296 C268.783994,78.3440102 267.130677,79.9439942 265.008,81.096 C262.885323,82.2480058 260.469347,82.824 257.76,82.824 Z M258.304,77.576 C259.712007,77.576 260.949328,77.2240035 262.016,76.52 C263.082672,75.8159965 263.903997,74.8720059 264.48,73.688 C265.056003,72.5039941 265.344,71.1973405 265.344,69.768 C265.344,68.2533258 264.880005,67.0426712 263.952,66.136 C263.023995,65.2293288 261.728008,64.776 260.064,64.776 C258.655993,64.776 257.418672,65.1279965 256.352,65.832 C255.285328,66.5360035 254.464003,67.4799941 253.888,68.664 C253.311997,69.8480059 253.024,71.1546595 253.024,72.584 C253.024,74.0986742 253.487995,75.3093288 254.416,76.216 C255.344005,77.1226712 256.639992,77.576 258.304,77.576 Z" id="DEINOVAÇÃO" stroke="url(#linearGradient-2)" stroke-width="1.3"></path>
                </g>
            </g>
        </g>
    </g>
</svg>